<?xml version="1.0" encoding="UTF-8" standalone="no"?>
<svg
   xmlns:dc="http://purl.org/dc/elements/1.1/"
   xmlns:cc="http://creativecommons.org/ns#"
   xmlns:rdf="http://www.w3.org/1999/02/22-rdf-syntax-ns#"
   xmlns:svg="http://www.w3.org/2000/svg"
   xmlns="http://www.w3.org/2000/svg"
   xmlns:sodipodi="http://sodipodi.sourceforge.net/DTD/sodipodi-0.dtd"
   xmlns:inkscape="http://www.inkscape.org/namespaces/inkscape"
   width="1309pt"
   height="631pt"
   viewBox="0 0 1309 631"
   version="1.1"
   id="svg2"
   inkscape:version="0.91 r13725"
   sodipodi:docname="Scales3.svg">
  <metadata
     id="metadata70">
    <rdf:RDF>
      <cc:Work
         rdf:about="">
        <dc:format>image/svg+xml</dc:format>
        <dc:type
           rdf:resource="http://purl.org/dc/dcmitype/StillImage" />
        <dc:title></dc:title>
      </cc:Work>
    </rdf:RDF>
  </metadata>
  <defs
     id="defs68" />
  <sodipodi:namedview
     pagecolor="#ffffff"
     bordercolor="#666666"
     borderopacity="1"
     objecttolerance="10"
     gridtolerance="10"
     guidetolerance="10"
     inkscape:pageopacity="0"
     inkscape:pageshadow="2"
     inkscape:window-width="1366"
     inkscape:window-height="705"
     id="namedview66"
     showgrid="false"
     inkscape:zoom="0.55981665"
     inkscape:cx="818.125"
     inkscape:cy="394.375"
     inkscape:window-x="-8"
     inkscape:window-y="-8"
     inkscape:window-maximized="1"
     inkscape:current-layer="svg2" />
  <path
     id="path64"
     d="m 252.18,466.16 c 4.86,-1.39 6.87,13.1 1.78,9.02 -0.95,-2.58 -3.88,-7.11 -1.78,-9.02 z m 133.95,-96.01 c 7.46,-1.43 4.01,10.98 5.88,15.8 -9.34,2.31 -5.57,-10.2 -5.88,-15.8 z m 413.22,-2.22 c 6.23,0.97 2.42,12.74 2.22,17.53 -8.63,2.01 -6.22,-13.45 -2.22,-17.53 z m -43.74,0.3 c 12.84,-4.66 13.26,17.91 2.47,18.71 -3.75,-0.31 -0.88,-4.23 -0.19,-6.16 -8.27,3.14 -8.5,-11 -2.28,-12.55 m 3.72,2.95 c -11.13,6.73 8.71,4.06 0,0 z m -90.9,-3.88 c 12.99,-1.07 4.27,17.05 -3.2,18.57 -2.98,-4.66 3.7,-8.43 3.34,-13.11 -8.52,3.01 -5.9,-6.04 -0.14,-5.46 z m -45.11,-0.21 c 6.28,1.4 -4.74,10.43 2.96,13.79 7.15,-0.19 -5.09,-6.5 2.89,-6.81 10.42,0.15 1.08,15.81 -6.15,12.03 -5.95,-4.44 -4.41,-14.04 0.3,-19.01 z m -147.58,0.08 c 11.68,-4.52 11.85,22.45 -0.22,17.48 -9.15,-0.41 0.27,-6.96 4.44,-7.42 -4.9,-1.23 -0.01,-8.36 -5.25,-5.47 -4.77,1.7 -1.75,-4.13 1.03,-4.59 z m 338.41,-0.88 c 11.24,1.79 11.17,18.48 0.05,19.5 -7,-3.74 -6.5,-15.8 -0.05,-19.5 m 1.15,7.85 c -7.73,7.35 8.5,2.85 0,0 z m -379.87,-7.98 c 11.22,-1.69 10.34,11.1 4.53,16.97 12.57,-6.31 10.93,9.18 -1.47,3.49 -13.23,1.11 -1.05,-8.81 -0.72,-13.31 -3.66,-1.02 -6.71,-4.3 -2.34,-7.15 z m -116.86,0.28 c 9.59,-3.35 21.34,6.64 14.51,16.4 -4.12,10.2 -18.86,7.94 -24.32,0.16 -1.99,-6.88 1.57,-16.49 9.81,-16.56 m 0.06,5.96 c -10.19,1.01 -1.09,16.38 6.57,11.04 8.48,-3.29 2.55,-16.9 -6.57,-11.04 z m 260.64,-7.25 c 5.75,-1.14 10.68,3.58 4.84,6.89 4.31,4.98 -0.57,16.51 -7.62,11.66 -4.88,-3.9 6.26,-2.98 2.77,-7.07 -10.4,0.58 -3.93,-8.12 0.01,-11.48 z m -50.04,0.05 c 8.05,-1.57 7.65,22.52 0.91,17.67 0.99,-6.29 -9.77,1.75 -9.16,-4.84 1.73,-4.61 4.11,-9.89 8.25,-12.83 m -2.21,6.82 c -1.1,7.32 7.31,-1.1 0,0 z m 458.36,-18.65 c 6.94,1.89 14.07,10.21 13.58,18.34 -5.07,7.9 -17.4,17.74 -26.07,7.42 -7.83,-10.57 1.05,-23.36 12.49,-25.76 m -3.75,7.89 c -8.55,3.78 -5.92,18.49 4.57,15.73 10.4,-3.23 2.79,-17.02 -4.57,-15.73 z M 963.21,215.55 c 4.51,-0.49 9,-0.74 2.69,2.32 -25.45,8.14 -55.71,3.79 -79.71,16.92 -8.14,-5.48 4.32,-11.61 9.6,-10.91 21.94,-7.08 44.99,-4.52 67.42,-8.33 z m -818.04,-2.98 c 6.82,1.07 18.57,-2.79 21.8,3.45 -37.91,-3.46 -75.58,5.66 -112.31,14.58 -3.46,1.11 -10.33,-2.64 -6.57,-6.46 31.43,-9.81 64.33,-10.1 97.08,-11.57 z m 1023.41,-1.4 c 32.69,-1.13 64.61,5.71 96.83,10.26 2.84,2.84 15.77,4.43 9.15,9.03 -33.47,-8.94 -69.02,-12.68 -103.82,-15.95 -2.08,0.07 -6.13,-2.51 -2.16,-3.34 z m -165.96,-0.61 c 4.09,0.49 12.79,-2.82 15.27,0.34 -15.49,-0.82 -32.5,7.42 -46.9,4.2 7.04,-6.26 22.02,-1.88 31.63,-4.54 z m 119,-2.17 c 5.77,2.27 22.95,-4.95 23.22,4 -5.18,-4.21 -32.7,-0.22 -23.22,-4 z M 369,205.5 c 20.11,5.18 41.36,3.51 60.74,10.97 6.29,-1.49 21.19,5.65 11.8,12.08 -27.45,-12.39 -60.54,-11.82 -89.77,-20.78 5.14,-1.85 11.58,-1.28 17.23,-2.27 z m -164.6,-4.36 c 4.25,-0.01 8.8,2.23 12.43,4.19 0.3,8.76 -21.49,2.24 -12.43,-4.19 z m -3.97,-11.89 c 5.02,0.27 12.32,-0.08 15.4,4.02 -2.01,5.38 -26.94,2.67 -15.4,-4.02 z m -5.03,-13.22 c 5.38,2.52 16.37,-1.73 17.58,5.92 -4.51,5.14 -26.75,2.91 -17.58,-5.92 z m -4.66,-11.56 c 7.09,1.04 15.8,1.86 21.29,5.52 -2.18,8.98 -38.54,2.1 -21.29,-5.52 z m -6.02,-10.18 c 8.38,0.57 21.56,-1.36 27.25,5.69 -7.48,6.59 -19.28,0.67 -28.49,0.42 -4.15,-1.07 -2.27,-5.77 1.24,-6.11 z M 612.25,17.23 c 4.95,-0.76 5.3,11.01 -0.99,8.51 -0.36,-2.75 -3.13,-7.66 0.99,-8.51 z m 81.15,-1 c 7.67,0.29 3.64,12.42 -3.14,10.52 -3.16,-2.98 -0.12,-8.65 3.14,-10.52 z m -13.07,-1.99 c 3.73,0.37 0.1,8.79 0.15,11.16 -6.89,2.71 -6.66,-10.65 -0.15,-11.16 z m -15.81,-0.21 c 7.11,-2.64 5.01,6.79 3.42,10.02 -5.41,0.76 -8.45,-7.61 -3.42,-10.02 z m -38.09,0.21 c 5.33,-2.09 9.13,13.49 0.1,9.41 -0.53,-3.11 -4.66,-7.64 -0.1,-9.41 z m 13.92,-0.98 c 4.16,0.02 5.37,12.42 -1.9,8.26 -1.04,-3.09 -2.63,-7.65 1.9,-8.26 z M 596.1,5.21 c 38.41,-3.09 79.45,-8.25 116.62,5.19 1.29,13.13 -4.06,28.59 -12.43,40.12 -7.38,3.13 -15.49,-0.57 -22.86,-1.28 -10.67,7.33 0.99,19.73 -2.4,29.57 4.47,53.08 3.48,106.35 5.66,159.53 0.01,4.78 5.6,4.05 7.92,7.03 9.48,7.82 9.92,20.76 12.72,31.37 111.51,5.75 223.51,7.83 335.17,12.93 7.78,-6.5 -13.25,-2.88 -17.66,-5.35 -15.13,6.66 -33.62,-5.49 -49.71,1.48 -15.07,-5.17 -32.06,2.48 -43.59,-9.66 -23.67,-2.41 -48.04,-6.18 -67.53,-21.16 -13.86,-6.23 -27.29,-24.66 -17.34,-39.35 10.07,-8.9 24.23,-10.45 36.12,-15.91 59.52,-11.67 119.99,-15.74 180.46,-19.06 5.91,-12.08 23.3,-14.41 27.11,0.36 63.47,0.55 127.02,6.17 189.76,16.89 15.44,2.3 29.24,11.96 34.88,26.68 l 0,5 c -8.92,23.59 -34.94,29.97 -55.46,39.96 -10.1,6.53 -23.49,2.61 -32.78,10.42 -11.55,1.83 -24.82,7.14 -35.83,1.42 -24.11,8.12 -50.79,2.52 -75.98,5.71 4.31,4.6 15.05,2.75 17.71,10.53 -0.49,11.34 -0.09,22.75 0.73,34.03 11.56,2.97 25.5,-3.71 36.05,2.34 3.01,-4.62 -0.28,-15.25 9.18,-12.53 11.2,0.47 30.93,-6.44 31.07,11.12 12.27,-0.28 24.67,-1.1 36.85,0.54 0.67,5.99 8.43,15 0.72,19.51 -13.55,-2.83 -26.36,1.81 -39.17,-1.53 -1.71,16.42 -24.21,6.55 -34.96,8.99 -7.93,0.17 1.09,-8.35 -5.52,-8.42 -11.27,-1.28 -23.13,-2.85 -34.18,0.03 -1.94,15.39 1.9,31.61 -0.6,46.93 -9.62,7.56 -23.94,1.78 -35.21,4.25 -0.84,7.14 -2.44,14.59 -0.32,21.69 15.43,3.79 34.26,8.8 36.77,27.26 17.65,17.59 32.12,38.36 49.02,57.02 0.96,12.83 17.09,17.53 22.56,28.5 8.08,16.31 17.81,30.85 24.84,48.07 9.49,11.46 25.75,25.52 23.86,40.89 -32.27,-3.97 -66.1,0.13 -98.85,-1.64 -9.17,0.6 -2.8,-15.15 -12.68,-11.75 -322.5,1.66 -645.08,2.24 -967.33,4.26 -3.54,0.4 -3.23,4.53 -3.79,7.16 -5.47,9.95 -17.32,2.77 -25.7,6.65 l -0.95,0 c -22.85,-2.44 -45.98,-0.17 -68.93,-1.07 1.66,-13.29 5.39,-28.86 18.2,-35.61 12.48,-15.22 23.5,-29.61 30.79,-48.18 3.15,-12.39 20.02,-18.57 16.28,-32.44 10.89,-22.62 29.31,-40.65 43.4,-61.08 2.78,-3.44 10.52,0.97 11.36,-4.61 -0.6,-17.55 19.03,-21.15 32.21,-22.94 -0.74,-5.6 4.16,-14.56 0.17,-18.64 -11.83,1.88 -24.37,-2.39 -35.59,2.6 -2.66,-18.67 -0.5,-38.18 -1.94,-56.91 -12.59,4.05 -25.52,-1.56 -38.06,1.73 0,12.71 -14.78,9.37 -23.07,9.65 -7.41,3.33 -16.16,-2.84 -14.77,-11.22 -9.54,4.71 -37.22,3.19 -31.6,-14.53 9.26,-6.27 21.81,0.21 31.63,-1.41 -0.26,-5.61 1.76,-14.03 9.57,-12.04 10.61,0.5 28.57,-5.43 29.32,10.46 9.26,-0.78 18.35,2.14 27.61,2.07 18.46,4.37 8.4,-22.82 9.26,-32.92 10.6,-3.59 21.71,-10.56 29.1,-17.92 -27.96,-0.41 -55.92,-4.57 -83.87,-1.23 -10.1,9.64 -25.1,-0.31 -37.09,1.27 C 82.73,285.98 77.57,273.6 66.84,274.7 49.18,273.76 34.47,263.54 18.22,257.82 10.04,251.37 4.36,241.99 0,232.65 l 0,-5.96 c 4,-3.89 -1.31,-12.41 5.08,-15.61 8.9,-7.96 21.12,-8.36 31.33,-13.74 42.11,-8.56 86.72,-15.21 128.11,-19.16 -6.31,-17.07 -20.44,-31.41 -29.1,-47.71 -1.04,-8.58 9.65,-12.84 16.5,-13.63 53.74,-8.62 113.26,-19 163.44,8.77 10.06,16.19 -8.98,34.27 -9.94,50.52 43.41,4.35 88.19,6.09 130.74,17.09 15.42,1.9 31.07,10.28 38.64,24.1 -2.43,21 -23.49,33.44 -40.85,41.61 -23.03,14.04 -55.35,11.6 -74.54,27.26 83.12,-3.02 167.51,-4.32 251.22,-8.54 0.3,-13.41 4.56,-30.92 18.99,-35.45 2.27,-64.32 4.71,-130.69 5.76,-193.73 -9.09,-6.94 -22.4,7.08 -30.54,-1.44 C 601.32,33.34 593.23,19.31 596.1,5.21 m 29.39,4.36 c -7.52,2.65 -20.43,-1.49 -23.37,8.41 4.23,7.01 4.84,16.58 9.83,22.57 10,-0.91 23.69,-6.06 30.81,4.06 -0.33,63.52 -0.72,126.73 -4.27,190.18 6.57,18.12 -21.68,15.93 -18.92,33.36 1.69,7.44 -4.79,14.86 -0.59,21.77 4.26,-3.13 10.49,-5.14 12.73,-9.9 -3.03,-13.92 1.53,-29.55 17.16,-33.08 3.9,-74.26 -0.24,-149.94 5.16,-224.95 -7.57,4.06 -5.07,-11.19 1.82,-8.96 0.77,75.01 7.88,151.22 9.18,226.74 -2.23,6.91 6.24,8.75 10.74,10.33 9.92,9.45 0.3,24.28 4.61,34.5 11.11,1.55 13.77,9.05 15.07,19.16 121.97,4.1 245.35,7.08 367.82,10.02 10.56,6.58 7.78,-16.89 -1.38,-13.46 -122.31,-6.69 -244.28,-9.6 -366.48,-14.59 -7.1,-11.56 -0.53,-36.51 -20.72,-39.1 -4.55,-65.39 -4.21,-134.01 -8.84,-198.68 5.53,-12.65 20.59,-5.54 30.27,-5.81 4.64,-7.69 6.12,-17.98 8.81,-26.77 -26.17,-5.01 -52.6,-6.53 -79.44,-5.8 M 235.25,114.43 c -29.31,2.16 -58.57,6.58 -87.72,10.92 -3.17,0.28 -6.21,4.85 -2.94,7.06 10.73,6.52 23.98,1.01 35.18,5.97 27.13,4.09 55.59,10.08 82.29,4.62 6.51,-6.2 16.33,-14.24 14.42,-24.23 -13.21,-4.24 -27.57,-3.32 -41.23,-4.34 m 71.2,25.77 c -2.84,1.96 -4.98,4.97 -8.04,6.51 -26,4.4 -52.21,8 -77.94,5.99 -22.33,-2.07 -44.48,-8.59 -67.06,-9.65 -2.24,5.45 3.17,8.23 5.97,11.65 9.78,18.99 22.34,36.48 36.17,52.72 4.1,5.69 11.3,7.72 17.47,4.47 17.63,6.86 37.53,0.97 56.64,2.02 18.08,-20.01 37.85,-48.16 36.79,-73.71 m 765.01,37.11 c -2.31,0.64 -6.7,5.24 -2.07,5.4 4.48,2.97 8.03,-7.56 2.07,-5.4 m -769.16,5.08 c -8.57,12.2 -15.46,26.4 -28.04,34.86 1.07,9.12 -1.25,20.48 -11.55,22.87 -19.34,3.4 -39.5,1.44 -58.49,-3.19 -9.59,-1.78 -10.47,-12.79 -9.4,-20.58 -11.35,-8.91 -18.25,-21.76 -27.2,-32.91 -17.54,7.68 -41.73,4.31 -61.64,9.55 -27.25,6.59 -56,6.26 -82.25,16.8 -6.34,0.57 -16.64,3.87 -13.14,12.34 18.24,16.47 44.13,13.89 66.81,17.64 124.27,15.86 251.5,15.32 374.78,-10.13 6.76,-1.61 13.44,-4.57 13.54,-12.39 -6.04,-9.08 -16.59,-11.45 -25.93,-16.13 -45,-11.43 -92.1,-12.94 -137.49,-18.73 m 753.31,6.11 c -59.16,4.76 -119.84,7.74 -178.38,20.68 -10.68,3.21 -30.73,3.12 -32.04,17.35 11.42,8.66 26.79,9.94 40.27,14.03 105.56,13.32 212.57,17.33 318.72,6.7 30.32,-8.01 63.72,-4.82 91.53,-20.41 4.89,-20.3 -24.38,-22.45 -39.06,-24.45 -53.94,-7.39 -108.78,-13.93 -163.37,-12.52 -3.99,-0.86 -11.49,-1.64 -12.15,4.15 5.22,10.68 16.25,15.47 26.09,20.9 1.72,7.91 -2.19,16.4 -3.9,24.39 -17.28,8.41 -37.23,4.47 -55.67,3.11 -4.12,0.88 -11.43,-3.45 -8.41,-8.12 2.8,-8.21 -7.36,-16.13 -2.59,-23.64 9.22,0.33 18.76,-4.85 22.27,-13.7 3.61,-3.41 4.62,-11.54 -3.31,-8.47 m 10.58,12.38 c -2.03,3.07 -7.01,6.53 -5.58,10.64 5.95,3.28 9.69,-7.77 5.58,-10.64 m -862.86,18.39 c -2.42,8.34 6.08,13.52 13.32,12.81 -0.13,-3.29 -10.01,-4.28 -5.48,-8.76 7.21,-3.47 -5.49,-3.95 -7.84,-4.05 m 848.05,-0.06 c -4.65,9.73 3.77,20.91 15.28,17.95 0.09,-10.1 -3.45,-20.82 -15.28,-17.95 M 217.1,220.9 c 3.37,5.48 8.76,-0.81 0,0 m 6.76,0.12 c 5.68,5.28 -1.94,7.7 -4.95,10.94 13.08,6.35 28.32,-0.71 42.03,0.1 7.22,0.66 8.55,-10.76 0.91,-10.61 -12.47,3 -25.45,1.37 -37.99,-0.43 M 6.97,231.31 c 9.08,22.95 39.04,35.06 60.91,34.66 -7.01,-24.85 23.49,-8 35.9,-11.8 6.28,11.91 21.35,22.88 35.21,20.94 55.21,3.29 115.51,3.36 172.64,0.4 3.55,-0.41 6.64,0.98 7.46,4.44 -14.03,9.1 -33.82,-0.81 -47.02,8.15 18.19,1.27 36.47,-0.41 54.77,-0.83 -0.16,-4.8 -10.86,-6.04 -4.59,-11.13 10.71,-1.18 15.49,-11.87 21.97,-19.09 13.39,-5.25 28.12,-3.56 41.64,-1.71 0.8,5.06 -4.02,8.48 -3.99,13.47 24.12,-7.82 54.75,-8.92 70.8,-30.88 -136.33,28.59 -276.36,21.78 -413.55,5.34 -10.61,-4.15 -22.63,-6.39 -32.15,-11.96 m 1286.62,4 c -26.54,12.83 -57.15,14.74 -85.6,18.5 10.46,3.93 34.83,-8.79 30.98,10.87 11.21,-1.56 21.99,-6.44 31.98,-11.72 7.94,-6.94 21.08,-6.53 25.54,-17.37 0.61,-1.57 -2.16,-0.25 -2.9,-0.28 M 850,238.1 c 16.39,20.02 44.06,26.96 68.9,30.95 -1.5,-4.73 -1.2,-11.63 3.45,-14.01 6.36,-1.57 17.36,6.75 20.64,-0.87 -30.82,-5.93 -63.43,-4.22 -92.99,-16.07 m -193.52,10.13 c -4.63,0.29 -6.84,8.39 -0.62,6.83 8.75,4.05 7.3,-9.69 0.62,-6.83 m -11.56,5.01 c -4.29,3.04 -9.68,6.16 -11.02,11.64 3.14,-4.09 17.11,-6.87 11.02,-11.64 m 22.43,1 c -4.46,4.15 4.59,5.69 7.67,6.66 -0.16,-3.65 -3.1,-8.82 -7.67,-6.66 m 524.27,0.26 c -77.8,8.67 -157.19,5.94 -235.27,0.54 3.02,10.9 15.58,14.5 24.7,19.45 63.53,4.65 127.53,7.46 191.05,0.9 8.94,-6.79 24.04,-5.64 28.85,-17.47 0.6,-5.41 -6.13,-4.06 -9.33,-3.42 M 75.5,258.14 c -2.33,14.13 18.18,23.16 30.44,19.25 -9.65,-8.11 -14.7,-22.85 -30.44,-19.25 m 1150.03,0.24 c -4.34,1.26 -14.95,-1.74 -12.59,6.62 2.61,8 -8.05,7.55 -10.1,12.85 8.29,-0.01 17.59,-1.47 21.36,-9.51 7.9,4.26 13.75,-16.26 1.33,-9.96 m -850.24,2.04 c -6.49,1.49 -13.93,-0.08 -19.92,3.02 -1.16,8.13 -9.83,12.37 -13.15,18.3 14.36,1.47 29.33,-6.39 35.74,-19.82 0.39,-1.89 -1.36,-1.82 -2.67,-1.5 m 278.01,-0.18 c -7.01,1.62 -17.25,5.13 -15.23,14.51 11.62,-2.19 23.2,-1.09 34.86,0.09 0.42,-10.15 -11.77,-13.05 -19.63,-14.6 m 271.3,0.99 c -3.13,16.86 26.5,18.44 38.46,17.75 -11.2,-9.67 -21.61,-21.37 -38.46,-17.75 m 281.78,0.2 c -2.36,5.54 -7.78,7.69 -11.34,11.62 5.71,0.21 17.07,-6.23 11.34,-11.62 m -858.98,1.79 c -4.71,5.92 -11.35,10.78 -16.2,15.92 5.53,1.25 20.07,-10.73 16.2,-15.92 m 605.69,-0.36 c 2.05,3.53 4.67,7.15 8.82,8.28 -2.06,-3.53 -4.67,-7.15 -8.82,-8.28 M 653.31,277.4 c -4.02,4.19 -14.25,-3.09 -15.41,3.51 12.32,-2.02 24.64,3.01 37.02,0.15 -3.03,-6.62 -15.25,-0.92 -21.61,-3.66 m -426.64,7.82 c -5.72,6.71 -15.59,10.26 -21.32,16 17.38,1.35 38.65,2.62 48.59,-15.25 -8.91,-1.39 -18.19,-0.04 -27.27,-0.75 m 384.81,0.11 c -8.77,5.42 -19.85,1.46 -29.46,2.65 -106.88,3.85 -214.09,6.59 -320.49,10.33 -6.87,2.21 3.08,6.53 3.7,10.39 2.23,10.25 14.93,3.58 22.36,4.63 108.18,-3.01 215.51,-6.51 323.65,-9.83 -0.16,-5.31 2.91,-14.8 0.24,-18.17 m 451.7,-0.05 c -5.7,1.25 2.74,6.97 4.74,3.19 13.42,8.23 28.54,9.55 44.04,6.48 -12.82,-11.77 -31.02,-8.09 -48.78,-9.67 m -801.73,2 c -8.33,4.82 7.67,-0.24 0,0 m 386.76,0.12 c -5.75,1.85 -11.71,1.68 -17.57,2.22 -18.21,7.38 -12.88,31.26 -15.59,46.5 -2.83,9.41 8.72,3.04 12.23,6.53 6.16,-0.45 6.98,-7.95 10.63,-11.74 8.61,-18.96 35.43,-6.06 39.64,9.67 4.95,1.04 10.97,2.56 15.47,-0.7 -6.01,-15.77 1.06,-36.03 -12.07,-48.96 -10.51,-4.31 -22.07,-0.48 -32.74,-3.52 m -394.5,7.84 c -2.79,2.66 -7.89,4.57 -8.45,8.81 3.86,-0.14 12.01,-5.12 8.45,-8.81 m 853.58,7.32 c -7.93,1.77 -16.85,-1.41 -24.23,1.54 1.47,14.19 -1.12,29.46 1.87,42.72 5.04,-4.87 10.83,-14.03 19.8,-13.48 7.47,0.51 11.4,9.23 16.37,12.32 -3.95,-14.41 10.07,-46.75 -13.81,-43.1 m -31.13,1.64 c -1.04,28.26 2.34,55.38 -1.77,83.28 -5.59,-2.24 -10.98,-12.68 -18.48,-15.34 7.2,7.19 13.23,18.94 22.14,22.59 0.44,-29.93 1.81,-63.7 -1.89,-90.53 m -824.68,2.08 c -5.93,3.69 -9.31,10.28 -7.45,17.37 2.5,13.66 -0.72,27.77 1.99,41.34 18.39,-1.68 38.29,2.4 55.72,-3.11 7.65,-11.57 20.28,-6.34 32.48,-8.41 1.41,-8.95 12.23,-14.98 18.6,-7.25 1.02,11.47 14.51,7.64 22.52,10.43 0.22,-9.37 -2.57,-17.86 5.29,-25.05 17.7,0.26 35.41,-0.89 53,1.1 6.8,-2.82 11.34,3.3 8.61,9.32 55.4,-1.21 110.79,0.8 166.11,-1.35 1.31,-8.73 3.69,-20.45 -0.27,-27.68 -119.84,1.59 -240.42,7.29 -360.51,9.95 -5.91,-3.77 0.34,-9.8 5.58,-8.81 10.33,2.64 4.47,-10.3 -1.67,-7.85 M 202,308.42 c -2.43,0.21 -7.3,0.63 -9.73,0.84 -0.86,14.41 -0.77,30.26 -0.55,43.79 3.66,-15.25 28.41,-17.99 33.53,-2.19 8.52,18.88 -24.85,33.24 -33.16,14.29 -0.31,11.69 -3.62,25.36 1.22,35.84 12.39,-2.56 26.42,1.46 37.86,-1.81 0.56,-29.47 1.12,-60.02 -2.14,-89.31 -8.1,-2.4 -18.11,-1.05 -27.03,-1.45 m 35.12,3.69 c -1.12,23.34 -0.94,47.72 1.04,70.99 1.17,-21.89 1.58,-49.57 -1.04,-70.99 m 463.97,1.19 c -11,1.61 -1.04,19.09 -2.82,27.65 81.86,0.62 164.01,1.69 245.8,-0.6 3.65,-14.91 30.26,-17.36 31.63,-0.01 13.91,1.01 31.91,4.04 35.28,20.79 18.52,3.36 39.34,-0.23 58.61,0.95 1.67,-13.09 1.01,-26.91 0.57,-40.16 -121.93,-1.63 -245.96,-6.16 -369.07,-8.62 m -47.7,14.01 c -6.74,0.95 -13.22,5.52 -13.09,12.86 3.28,3.51 25.61,-12.44 13.09,-12.86 m 522.12,0.12 c -9.56,3.15 -0.89,17.85 -1.97,24.97 12.81,5.09 29.21,-1.75 21.41,-16.66 5.1,-12.44 -13.02,-6.99 -19.44,-8.31 m -1057.97,3.72 c -2.54,7.9 -0.94,16.96 0.06,25.2 6.9,2.27 15.2,-0.62 22.4,-1.17 -1.73,-5.82 0.62,-12.08 -0.7,-18.03 6.32,-11.96 -16.85,-2.69 -21.76,-6 m 545.76,2.26 c -7.79,3.39 -9.45,10.42 1.64,7.93 8.95,3.95 1.63,-7.81 -1.64,-7.93 m 295.37,1.89 c -10.86,4.06 1.57,8.49 7.93,6.34 1.4,-4 -3.83,-8.83 -7.93,-6.34 m -549.4,2.18 c -7.38,3.39 -22.9,-5.38 -24.07,6.07 14.94,-4.27 32.62,3.6 45.99,-4.82 -6.76,-3.1 -14.74,0.58 -21.92,-1.25 m 724.89,0.69 c -0.94,3.5 1.46,8.34 5.66,6.73 2.05,-3.93 -1.83,-8.28 -5.66,-6.73 m 12.07,0.01 c -0.15,3.56 3.37,8.6 7.43,7.81 -0.29,-3.34 -3.78,-8.11 -7.43,-7.81 m 11.55,0.15 c 0.51,3.11 1.63,9.07 5.99,7.41 1.52,-3.82 -3.28,-6.39 -5.99,-7.41 m 50.27,-0.06 c -0.57,3.49 1.4,7.16 5.09,7.67 -1.24,-2.56 -1.24,-8.41 -5.09,-7.67 m -81.19,0.88 c -0.12,9.14 4.71,5.08 0,0 m 91.47,-0.14 c -0.49,3.8 2.24,7.71 6.35,7.28 -1.32,-3.03 -1.81,-8.72 -6.35,-7.28 m 12.76,0.41 c -3.06,2.6 1.14,7.27 4.68,6.77 -2.42,-3.17 2.4,-8.69 -4.68,-6.77 m -1082.79,0.8 c -3.43,1.86 2.07,9.52 4.61,6.01 -1.41,-1.63 -1.49,-7.5 -4.61,-6.01 m 951.55,0.26 c -8.29,0.02 -12.87,15.86 -5.05,17.2 -2.7,-8.01 16.1,-19.64 5.05,-17.2 m -940.61,0.45 c -3.73,8.18 7.29,5.25 0,0 m -64.82,1.23 c -3.66,1.74 3.4,6.99 5.53,3.87 -0.36,-2.71 -2.71,-4.94 -5.53,-3.87 m 11.77,0.04 c -2.79,1.89 0.02,7.57 1.99,8.5 -0.31,-1.91 2.85,-9.75 -1.99,-8.5 m 62.9,-0.17 c -3.44,5.91 5.34,5.13 0,0 m 8.87,-0.08 c -3.73,10.45 10.16,5.21 0,0 m 930.33,2.32 c -6.58,1.75 -4.49,8.7 2.24,8.66 8.52,2.89 2.66,-10.07 -2.24,-8.66 m -900.16,0.99 c -8.11,-2.32 -2.74,9.89 -0.11,12.61 1.98,-2.99 8.98,-13.51 0.11,-12.61 m 436.16,1.29 c -9.89,2.03 -20.72,-1.77 -30.19,1.78 -0.89,4.83 -1.17,9.75 -0.26,14.6 -8.59,1.1 -8.77,-9.2 -5.89,-14.84 -11.44,-3.45 -23.76,0.6 -35.47,-0.56 -9.2,2.26 2.46,13.25 -6.49,16.52 -7.09,-1.63 -4.17,-10.99 -3.09,-16.1 -12.96,0.73 -25.79,-1.5 -38.63,0.3 -0.62,4.58 1.97,15.52 -5.91,13.62 -4.22,-3.35 -1.52,-9.28 -1.43,-13.85 -13.61,0.3 -27.41,-1.04 -40.91,0.98 1.53,4.98 2.39,16.64 -5.5,14.59 0.85,-4.8 -2.35,-11.15 2.64,-14.69 -14.17,-0.96 -30.88,-3.59 -43.7,2.8 -0.09,12.75 0.23,25.99 0.4,38.94 91.6,-1.88 186.79,-0.81 279.95,-1.43 -3.57,-4.58 1.81,-10.1 -1.68,-15.23 0.86,-7.04 10.14,-8.92 13.27,-2.4 -0.72,5.98 1.06,13.46 -2.93,17.1 83.85,0.57 167.91,-0.24 251.84,-1.4 10.75,-2.49 24.39,2.3 31.89,-8.18 6.34,-13.31 -3.69,-32.47 -19.58,-30.76 C 919.5,346.54 856,347.17 793,347.49 c -6.78,2.89 0.14,19.13 -9.98,13.41 7.32,-22.43 -18.93,-11.44 -29.88,-13.91 -11.04,-4.47 -0.9,21.77 -12.06,12.93 6.58,-20.12 -18.2,-10.46 -28.98,-12.99 -12.7,-4.15 -1.1,20.95 -14.03,14.16 8.62,-22.07 -18.56,-12.84 -30.94,-14.21 -12.3,-3.4 1.03,17.11 -9.79,15.99 -7.55,-6.53 3.81,-21.61 -13.05,-16.32 m -302.05,1.66 c -6.32,4.97 8.31,9.97 7.67,3.19 -2.57,-0.91 -4.82,-3.88 -7.67,-3.19 m 41.3,0.09 c -5.43,-0.09 -1.45,14.08 2.91,8.21 4.54,-10.14 16.08,-3.57 16.99,4.89 -0.89,16.56 5.82,44.87 -20.34,40.49 7.16,12.65 27.73,3.41 39.69,4.97 1.62,-18.87 0.33,-39.01 -0.76,-58.1 -12.16,-1.18 -25.72,0.68 -38.49,-0.46 m -166.2,3.84 c -4,2.59 -1.18,6.76 1.67,8.91 2.41,-2.43 3.23,-9.81 -1.67,-8.91 m -20.17,0.79 c 0.54,6.23 0.75,13.92 8.24,6.95 -5.08,-0.44 -4.24,-6.61 -8.24,-6.95 m 904.69,3.29 c -1.77,6.85 10.88,6.97 11.3,0.88 -3.89,2.63 -7.47,0.35 -11.3,-0.88 m -708.5,1.09 c -3.25,7.36 -14.15,7.56 -18.22,0.7 -19.64,2.72 -40.1,0.92 -60.09,3.04 -16.97,2 -19.93,33.29 -0.21,33.2 27.22,0.82 54.7,0.41 82.12,0.86 -3.86,-11.36 5.7,-31.06 -3.6,-37.8 m 727.11,2.95 c -8.3,10.77 -25.46,8.78 -35.51,1.12 -1.33,10.91 -0.82,22.22 -0.91,33.31 12.11,1.7 24.46,0.18 36.76,0.15 -0.18,-11.13 1.16,-25.24 -0.34,-34.58 m -910.85,3.16 c -2.8,0.66 -7.87,1.76 -7.45,5.42 6.2,3.85 20.98,-4.8 7.45,-5.42 m 812.45,4.93 c -3.78,1.11 -11.41,-1.47 -11.31,4.46 -0.43,10.92 -8.05,17.27 -17.31,20.96 -56.17,-0.69 -112.93,0.72 -169.27,0.79 -37.08,0.87 -80.32,-2.92 -120.15,0.83 0.03,21.55 5.96,42.48 7.63,63.93 0.05,18.8 17.4,30.11 22.83,46.59 141.44,-0.93 283.89,-0.52 425.81,-3.43 -7.92,-13.45 -21.3,-31.77 -33.32,-43.14 4.77,25.59 -26.68,28.33 -44.51,27.15 -22.92,0.65 -51.9,3.84 -68.64,-15.34 -5.41,-6.54 -0.13,-14.37 -0.9,-21.73 -14.67,-4.1 -29.77,-0.02 -44.64,-0.93 -83.64,0.21 -167.84,1.2 -251.73,2.13 -8.15,-0.13 -0.63,-10.3 4.7,-6.09 98.15,-1.94 196.66,0.05 294.86,-4.11 5.71,-14.54 24.14,-14.57 37.04,-17.08 9.07,-11.53 0.49,-27.49 2.62,-40.66 -1.83,-6.35 -11.44,-5.12 -12.71,-11.73 19.35,-2.84 -12.63,-2.3 -21,-2.6 m 45.29,0.77 c -4.32,5.94 8.29,1.79 0,0 m -818.04,2.15 c -4.47,-1.13 -4.99,10.02 -0.75,5.57 4.35,-0.45 6.25,-7.1 0.75,-5.57 m 8.51,1.09 c -2.45,5.15 -7.58,8.48 -10.68,12.78 2.59,0.75 21.85,-15.34 10.68,-12.78 m 14.12,-0.47 c -3.78,6.61 -11.66,8.18 -15.83,14.42 0.05,13.28 3.17,26.84 1.86,40 16.04,3.4 35.46,4.45 41.5,21.5 100.27,1.51 200.97,-0.24 301.12,-3.05 1.96,-16.21 4.04,-33.34 3.65,-49.16 -53,-2.7 -106.51,0.39 -159.64,0.44 -6.59,6.63 -9.01,20.44 -20.86,18.26 -16.09,-3.63 -39.19,6.48 -48.13,-11.98 -16.48,-2.66 -33.66,1.77 -50.44,-0.02 -17.21,3.22 -34.79,-11.1 -30.42,-29.27 -7.65,1.96 -14.82,-2.93 -22.81,-1.14 m 443.43,6.16 c -8.74,8.05 9.77,5.27 0,0 m 347.8,12.77 c 5.63,11.8 -5.86,26.69 0.75,39.29 -5.73,13.47 11.62,9.36 20.04,7.63 0.08,-11.83 -1.19,-23.57 -0.34,-35.36 -10.85,2.29 -13.1,-6.08 -20.45,-11.56 m -813.98,1.25 c -4.46,2.22 -1.84,10.29 -8.5,9.45 -15.55,6.72 -9.3,25.36 -10.51,40.32 7.05,1.57 15.62,2.29 21.77,-1.19 -1.13,-15.96 -2.45,-34.82 -2.76,-48.58 m 368.04,2.38 c -1.5,0.21 -4.5,0.63 -6,0.84 -2.89,24.87 -1.78,49.91 -3.83,74.77 4.27,13.46 -9.94,25.1 -12.93,36.73 44.32,0.81 90.44,0.33 133.49,-1.68 -8.25,-6.07 -15.42,-16.61 -20.16,-26.92 -3.74,-25.86 -7.52,-51.7 -8.61,-77.66 -1.57,-1.99 -0.31,-6.81 -3.7,-6.14 -26.16,-0.11 -52.14,0.23 -78.26,0.06 m -186.95,1.64 c -3.59,3.04 -0.69,15.35 3.42,6.62 4.74,-4.03 2.31,-7.78 -3.42,-6.62 m 614.24,34.32 c -5.52,3.55 -12.37,3.3 -18.25,5.96 0.48,19.76 28.08,18.3 41.73,18.9 -10.08,-4.7 -25.17,0.6 -31.49,-10.73 -2.41,-2.45 -6.93,-10.44 0.81,-8.24 11.3,17.14 35.19,12.14 52.66,13.56 7.36,-1.2 13.02,-6.8 18.11,-11.89 9.99,5.46 -9.64,12.41 -8.5,15.68 6.19,-2.37 15.57,-1.65 18.33,-8.66 -5.88,-8.54 -16.77,-10.59 -26.94,-12.86 -0.54,4.25 7.53,3.57 5.92,8.68 -10.95,8.56 -25.98,5.45 -38.92,4.63 -4.21,0.87 -10.84,-0.85 -9.94,-6.34 15.05,6.48 8,-15.21 -3.52,-8.69 m -830.99,2.1 c -6.36,1.11 -11.11,5.79 -16.43,9.03 -1.25,13.58 17.26,14.26 26.83,15.44 -4.6,-5.46 -17.29,-4.5 -19.75,-13.91 3.16,-5.17 9.54,0.94 12.73,2.87 -2.81,-5.83 1.01,-10.24 6.84,-10.28 1.63,-5.43 -7.53,-2.36 -10.22,-3.15 m 52.82,2.9 c -4.4,0.02 -12.63,1.95 -4.6,3.81 8.28,3.2 0.36,7.96 -4.97,9.1 7.81,1.53 14.94,-3.6 21.17,-7.66 0.35,-5.37 -7.53,-5.76 -11.6,-5.25 m 17.96,7.94 c -9.48,4.49 -17.05,13.31 -28.39,12.78 11.75,4.57 24.59,-4.5 36.36,-6.72 -0.56,-3.31 -4.99,-6 -7.97,-6.06 m -62.22,2.85 c -2.81,6 12.19,0.09 0,0 m 9.47,1.8 c 1.62,2.58 14.41,4.53 16.27,1.29 -5.13,-1.77 -10.88,-0.66 -16.27,-1.29 m 791.38,1.96 c -3.6,7.29 -7.01,19.5 3.78,22.33 27.51,10.27 61.2,14.35 88.48,1.05 7.59,-2.92 6,-14.46 4.79,-20.3 -11.82,12.17 -30.72,8.56 -45.98,10.71 -17.22,-2.12 -36.86,-2.25 -51.07,-13.79 m -515.7,2.59 c -66.86,1.51 -133.79,1.56 -200.6,2.25 -12.85,-0.69 0.29,16.58 -8.41,21.53 -22.82,13.11 -50.17,10.58 -75.56,10.04 -14.26,-1.92 -36.57,-6.1 -35.07,-24.74 1.74,-3.97 -4.42,-5.06 -5.66,-1.71 -11.25,16.97 -26.35,31.07 -35.77,49.14 146.14,1.57 292.15,-2.16 438.41,-2.23 1.07,-9.89 9.99,-16.06 13.47,-24.93 2.34,-9.95 3.07,-19.39 2.04,-29.53 -30.69,-0.78 -61.92,1.11 -92.85,0.18 m -307.04,2.75 c -8.95,1.97 -5.57,14.04 0.86,17.65 20.14,10.81 45.32,8.43 66.93,5.37 -3.8,-4.64 -1.43,-18.1 -10.52,-14.79 -18.62,-0.41 -42.17,1.51 -57.27,-8.23 m 90.15,1.07 c -10.13,-0.1 -9.33,9.8 -5.16,16.61 11.01,1.02 9.1,-12.64 5.16,-16.61 m -17.99,5.86 c -5.59,1.86 -1.5,10.12 -1.3,14.75 8.51,5.97 10.15,-16.96 1.3,-14.75 m 870.76,46.27 c -65.92,3.36 -132.91,1.2 -199.06,2.5 -266.44,1.08 -532.1,1.89 -798.9,4.95 -0.72,1.78 -0.31,4.34 2.12,4.12 155.27,0.41 310.79,-2.18 465.84,-2.31 185.36,-2.87 369.82,-1.6 554.68,-4.62 -0.96,-9.93 -17.41,0.97 -24.68,-4.64 m -57.93,11 c -311.34,3.22 -622.11,3.28 -933.27,6.46 -17.4,-3.31 -25.7,18.13 -28.26,30.53 83.93,2.65 168.26,-1.05 252.45,0.05 273.57,-2.72 546.69,-1.55 820.37,-5.7 -0.45,-15.23 -16.06,-25.24 -28.64,-30.83 -27.52,-0.86 -55.14,0.27 -82.65,-0.51 m -60.85,38.99 c -300.69,1.85 -601.45,2.73 -901.71,4.87 -6.09,-0.49 -8.1,8.16 0.54,6.33 358.75,-1.95 718.35,-2.43 1076.91,-5.96 4.91,0.23 2.11,-6.08 -1.53,-5.47 -58.2,-0.77 -116.23,0.7 -174.21,0.23 m 82.9,12.06 c -325.16,3.26 -649.53,2.42 -974.61,5.02 -13.03,-0.18 -31.73,0.61 -34.12,16.86 371.02,0.08 742.24,-2.97 1112.7,-4.39 11.09,0.85 0.25,-15.03 -2.97,-18.3 -33.79,-0.13 -67.28,2.12 -101,0.81 m -208.04,22.17 c -2.26,5.03 -9.2,1.13 -13.29,2.29 -258.85,1.35 -517.44,1.74 -776.48,3.65 -7.41,1.66 -16.13,0.02 -21.89,6.1 -3.68,5.85 -2.64,14.66 -8.78,18.29 25.46,2.56 51.96,-0.07 77.78,1.14 -1.61,-15.72 14.5,-13.06 24.4,-12.05 317.9,-2.34 634.34,-1.46 951.95,-5.54 6.54,-1.16 13.51,-0.78 19.59,2.11 1.6,2.6 -3.34,10.59 2.59,10.34 26.44,-1.62 53.22,0.98 79.66,-1.44 1.23,-11.45 -10.63,-28.08 -23.76,-23.57 -100.18,-0.49 -199.61,0.79 -299.52,0.78 -3.96,-0.16 -10,2.2 -12.25,-2.1 z" />
</svg>
