<svg xmlns="http://www.w3.org/2000/svg" xmlns:xlink="http://www.w3.org/1999/xlink" viewBox="0 0 977.83 700">
    <defs>
      <style>
        .cls-1 {
          fill: #212121;
        }
  
        .cls-2 {
          clip-path: url(#clip-path);
        }
  
        .cls-3 {
          fill: none;
          stroke: #fff;
          stroke-linecap: round;
          stroke-linejoin: round;
          stroke-miterlimit: 10;
          opacity: 0.3;
        }
      </style>
      <clipPath id="clip-path">
        <path id="Base" class="cls-1" d="M0,0H977.83V700H0Z" transform="translate(-20494.83 -20082)"/>
      </clipPath>
    </defs>
    <g id="Gruppe_maskieren_2412" data-name="Gruppe maskieren 2412" class="cls-2" transform="translate(20494.83 20082)">
      <path id="Pfad_600" data-name="Pfad 600" class="cls-3" d="M1362.818,84.574l-18.53,13.557,137.453-.437Zm-84.4-38.912,65.871,52.469,18.526-13.557ZM770.371,217.038l-.509.392.515.045Zm0,0-.509.392.515.045Zm383.8-158.046-173.2-23.483,67.98,94.608ZM940.967,97.852l40.007-62.343M883.421,63.976l57.546,33.874M883.421,63.976h0l-79.683.7,24.283,67.692ZM734.164,65.747l69.574-1.067L656.285,11.415,828.021,132.372Zm93.857,66.625L803.738,64.68l-69.574,1.067Zm516.268-34.241h0l-65.868-52.469L1172.8,98.989Zm-295.337,31.986h0L1172.8,98.989l-18.627-40-105.22,71.129-67.98-94.611L940.964,97.849Zm229.469-84.456-124.249,13.33,18.627,40Zm-450.4,86.712L980.974,35.509,828.023,132.373Zm55.4-68.4-55.4,68.393,112.947-34.52ZM1649.428,1260.6l275.791-321.486-468.891,180.793Zm-193.1-140.693,468.891-180.793L1649.432,893.5ZM1803.61,276.346,1593.221,211.68l21.458,93.371Zm-188.928,28.7-21.461-93.371-97.724-6.518ZM1649.428,893.5l275.791,45.618L1649.425,456.1Zm-56.208-681.817L1481.741,97.69,1495.5,205.162Zm56.2,244.416,275.794,483.015,43.431-336.2ZM1495.5,205.166,1481.738,97.69l-137.453.437ZM464.428,1235.534l544.114-94.3L656.016,961.256Zm44.831-982.376L99.281,225.911l556.735,79.143Zm0,0L568.288,97.4,315.941,132.926Zm0,0L828.024,132.369,656.285,11.415Zm146.757,51.893L99.281,225.911,362.505,393.89ZM198.061,685.223.5,514.676,181.472,914.339ZM99.284,225.911.5,514.679,198.061,685.226ZM362.505,393.889,99.284,225.911l98.781,459.315ZM765.114,217.022l4.746.411.512-.4v-.016l57.649-84.653L509.259,253.158,315.941,132.926,99.284,225.911l409.978,27.247Zm377.305,644.537-133.877,279.674,447.789-21.325Zm-133.873,279.674,640.886,119.37-193.1-140.692Zm-352.53-179.98,352.53,179.977,133.877-279.671ZM68.554,1143.935l395.874,91.6L181.472,914.343ZM.5,514.676l68.054,629.256L181.472,914.339ZM509.259,253.157,656.285,11.418l-88,85.977ZM181.472,914.339l282.956,321.191L656.016,961.253Zm16.589-229.117,457.958,276.03L464.428,625.588Zm850.89-555.106-82.862,43.911L1002.173,283.5Zm-180.91,95.794L771.518,325.5l230.655-42-23.733-10.19ZM1002.173,283.5,966.089,174.028l-55.945,29.6Zm0,0-92.03-79.872-42.106,22.281Zm0,0h0l194.72,21.552L1048.951,130.121ZM1421.41,561.149l-224.516-256.1L1002.173,283.5,1175.155,398.06Zm-477.142,0,301.787,95.894L1002.173,283.5Zm301.784,95.894,175.361-95.9L1002.173,283.5ZM771.518,325.5,944.265,561.149l57.905-277.643Zm-6.4-108.483L509.259,253.158l146.753,51.893,113.844-87.617Zm691.218,902.886,193.1-226.408-507.009-31.938Zm158.351-814.857L1495.5,205.162l-213.35-18.633ZM181.472,914.339l474.547,46.914L198.064,685.22ZM770.378,217.479,771.521,325.5l96.519-99.594ZM1968.653,602.915,1803.61,276.346l-188.931,28.708ZM1172.8,98.989l-123.847,31.125L1196.9,305.051Zm109.344,87.54L1172.8,98.989l24.1,206.061Zm62.142-88.4-171.487.862,109.348,87.536ZM1495.5,205.166,1344.288,98.131l-62.142,88.4ZM876.337,766.789l67.931-205.64L771.518,325.5Zm266.082,94.77L1649.428,893.5,1246.052,657.043Zm-266.082-94.77,266.085,94.77L944.268,561.146Zm67.931-205.64,198.154,300.41,103.633-204.516Zm-288.253,400.1,486.4-99.694-266.085-94.77Zm590.036-304.21L1649.428,893.5,1421.413,561.149ZM1649.425,456.1l319.228,146.815L1614.682,305.051ZM1282.146,186.529,1649.425,456.1l-34.743-151.046Zm139.264,374.62L1649.428,456.1,1196.894,305.051ZM1649.428,893.5l0-437.4L1421.41,561.149ZM1196.9,305.051,1649.428,456.1,1282.146,186.532ZM464.428,625.585,656.016,961.253,771.518,325.5ZM770.371,217.038l-.509.392.515.045Zm195.718-43.007L940.967,97.852l-112.947,34.52,82.127,71.261ZM771.518,325.5l-115.5,635.752L876.334,766.792Zm96.523-99.594,42.106-22.281-82.123-71.258-57.649,84.653v.016l.052-.042-.052.042,0,.437Zm-97.663-8.432-.515-.045L656.016,305.051l115.5,20.454Zm278.573-87.361h0L940.964,97.849l25.122,76.179ZM362.505,393.889,198.061,685.223l266.367-59.635ZM771.518,325.5l-115.5-20.451L464.428,625.588Zm-115.5-20.454L362.505,393.89l101.923,231.7Z" transform="translate(-18671.564 -20374.766) rotate(114)"/>
    </g>
  </svg>